<?xml version="1.0" standalone="no"?>
<!DOCTYPE svg PUBLIC "-//W3C//DTD SVG 20010904//EN"
 "http://www.w3.org/TR/2001/REC-SVG-20010904/DTD/svg10.dtd">
<svg version="1.0" xmlns="http://www.w3.org/2000/svg"
 width="148.000000pt" height="148.000000pt" viewBox="0 0 148.000000 148.000000"
 preserveAspectRatio="xMidYMid meet">

<g transform="translate(0.000000,148.000000) scale(0.100000,-0.100000)"
fill="#000000" stroke="none">
<path d="M0 740 l0 -740 740 0 740 0 0 740 0 740 -740 0 -740 0 0 -740z m1470
0 l0 -730 -730 0 -730 0 0 730 0 730 730 0 730 0 0 -730z"/>
<path d="M155 1325 l-25 -24 0 -561 0 -561 25 -24 24 -25 561 0 561 0 24 25
25 24 0 561 0 561 -25 24 -24 25 -561 0 -561 0 -24 -25z m1145 -25 c20 -20 20
-33 20 -560 0 -527 0 -540 -20 -560 -20 -20 -33 -20 -560 -20 -527 0 -540 0
-560 20 -20 20 -20 33 -20 560 0 527 0 540 20 560 20 20 33 20 560 20 527 0
540 0 560 -20z"/>
<path d="M300 940 c0 -19 7 -20 90 -20 l90 0 0 -125 0 -125 -90 0 -90 0 0
-140 0 -141 67 3 68 3 7 44 c17 99 88 157 183 149 86 -7 142 -62 154 -153 l6
-40 195 0 195 0 3 110 c3 102 0 121 -39 265 -28 104 -48 161 -61 173 -19 16
-53 17 -399 17 -372 0 -379 0 -379 -20z m570 -181 c0 -133 -3 -161 -15 -165
-8 -4 -22 -1 -30 6 -22 18 -22 292 0 314 9 8 22 13 30 10 12 -5 15 -34 15
-165z m89 157 c8 -9 11 -63 9 -167 l-3 -154 -25 0 -25 0 -3 154 c-2 146 3 181
28 181 4 0 13 -6 19 -14z m115 -49 c47 -164 67 -250 62 -263 -4 -11 -20 -14
-63 -12 l-58 3 -3 159 c-3 161 2 182 34 169 7 -3 20 -28 28 -56z m-296 -74 l3
-123 -131 0 -130 0 0 125 0 126 128 -3 127 -3 3 -122z"/>
<path d="M542 530 c-65 -40 -77 -128 -26 -189 48 -58 133 -59 187 -3 75 78 16
212 -93 212 -19 0 -50 -9 -68 -20z m112 -51 c19 -15 26 -30 26 -54 0 -36 -36
-75 -70 -75 -34 0 -70 39 -70 75 0 36 36 75 70 75 10 0 29 -9 44 -21z"/>
</g>
</svg>
