<?xml version="1.0" standalone="no"?>
<!DOCTYPE svg PUBLIC "-//W3C//DTD SVG 20010904//EN"
 "http://www.w3.org/TR/2001/REC-SVG-20010904/DTD/svg10.dtd">
<svg version="1.0" xmlns="http://www.w3.org/2000/svg"
 width="225.000000pt" height="225.000000pt" viewBox="0 0 225.000000 225.000000"
 preserveAspectRatio="xMidYMid meet">

<g transform="translate(0.000000,225.000000) scale(0.100000,-0.100000)"
fill="#000000" stroke="none">
<path d="M305 2061 c-45 -11 -74 -32 -98 -71 l-22 -35 0 -830 0 -830 22 -35
c12 -19 37 -44 55 -55 32 -20 51 -20 863 -20 817 0 831 0 865 20 19 12 43 36
55 55 20 34 20 48 20 865 l0 830 -22 35 c-12 19 -37 44 -55 55 -32 20 -52 20
-843 22 -445 0 -823 -2 -840 -6z m1666 -90 l29 -29 0 -811 c0 -572 -3 -817
-11 -834 -6 -14 -22 -30 -36 -36 -17 -8 -262 -11 -834 -11 l-811 0 -29 29 -29
29 0 811 c0 574 3 817 11 835 6 13 21 29 33 34 14 7 296 11 834 11 l814 1 29
-29z"/>
<path d="M450 1765 l0 -35 315 -2 316 -3 -131 -74 c-71 -41 -130 -77 -130 -81
0 -4 33 -29 73 -56 l72 -49 -257 -3 -258 -2 0 -30 0 -30 333 -2 c324 -3 332
-3 332 -23 0 -20 -8 -20 -332 -23 l-333 -2 0 -30 0 -30 333 -2 c324 -3 332 -3
332 -23 0 -20 -8 -20 -332 -23 l-333 -2 0 -30 0 -30 333 -2 c324 -3 332 -3
332 -23 0 -20 -8 -20 -332 -23 l-333 -2 0 -135 0 -135 660 0 c363 0 660 3 660
8 0 6 -37 277 -66 486 -4 28 -17 60 -31 77 l-24 29 -180 2 -180 3 77 53 76 54
-135 76 -135 77 314 3 314 2 0 35 0 35 -675 0 -675 0 0 -35z m778 -143 c51
-30 92 -55 92 -57 0 -3 -34 -27 -75 -55 -101 -68 -132 -68 -235 0 -41 27 -75
52 -75 55 0 7 189 116 195 112 3 -1 47 -26 98 -55z m397 -232 c8 -14 35 -185
35 -228 l0 -33 -97 3 -98 3 -3 119 c-1 66 0 126 2 133 7 16 151 18 161 3z"/>
<path d="M893 800 c-122 -74 -46 -272 94 -245 84 15 132 109 97 187 -33 74
-122 101 -191 58z"/>
<path d="M1234 811 c-11 -5 -33 -23 -47 -41 -52 -62 -28 -168 46 -203 44 -21
70 -21 114 0 47 22 73 66 73 126 0 40 -5 53 -33 83 -28 31 -41 37 -83 40 -27
2 -58 0 -70 -5z"/>
<path d="M450 710 l0 -100 160 0 160 0 0 100 0 100 -160 0 -160 0 0 -100z"/>
<path d="M1480 710 l0 -101 158 3 157 3 -1 50 c0 28 -4 71 -8 98 l-7 47 -150
0 -149 0 0 -100z"/>
<path d="M450 485 l0 -35 675 0 675 0 0 35 0 35 -675 0 -675 0 0 -35z"/>
</g>
</svg>
