<?xml version="1.0" standalone="no"?>
<!DOCTYPE svg PUBLIC "-//W3C//DTD SVG 20010904//EN"
 "http://www.w3.org/TR/2001/REC-SVG-20010904/DTD/svg10.dtd">
<svg version="1.0" xmlns="http://www.w3.org/2000/svg"
 width="225.000000pt" height="225.000000pt" viewBox="0 0 225.000000 225.000000"
 preserveAspectRatio="xMidYMid meet">

<g transform="translate(0.000000,225.000000) scale(0.100000,-0.100000)"
fill="#000000" stroke="none">
<path d="M0 1125 l0 -1125 1125 0 1125 0 0 1125 0 1125 -1125 0 -1125 0 0
-1125z m2240 0 l0 -1115 -1115 0 -1115 0 0 1115 0 1115 1115 0 1115 0 0 -1115z"/>
<path d="M262 2040 c-18 -11 -41 -34 -52 -52 -19 -32 -20 -52 -20 -863 0 -811
1 -831 20 -863 11 -18 34 -41 52 -52 32 -20 49 -20 870 -18 828 3 837 3 865
24 15 11 36 36 45 55 17 32 18 93 18 859 0 806 -1 826 -20 858 -11 18 -34 41
-52 52 -32 19 -52 20 -863 20 -811 0 -831 -1 -863 -20z m1713 -65 l25 -24 0
-826 0 -826 -25 -24 -24 -25 -826 0 -826 0 -24 25 -25 24 0 826 0 826 25 24
24 25 826 0 826 0 24 -25z"/>
<path d="M452 1768 l3 -33 670 0 670 0 3 33 3 32 -676 0 -676 0 3 -32z"/>
<path d="M1049 1694 c-11 -13 2 -30 94 -122 59 -59 107 -111 107 -115 0 -4
-179 -7 -399 -7 l-398 0 1 -22 c1 -23 4 -23 146 -28 l145 -5 0 -190 0 -190
-147 -3 -148 -3 0 -154 0 -155 665 0 c767 0 685 -14 685 118 0 69 -9 108 -74
325 -41 135 -79 255 -85 266 -19 35 -45 41 -177 41 l-127 0 -132 130 c-73 72
-135 130 -137 130 -3 0 -11 -7 -19 -16z m265 -300 c14 -14 16 -47 14 -246 -3
-224 -4 -231 -25 -245 -19 -13 -24 -12 -42 6 -20 20 -21 32 -21 239 0 181 3
221 16 240 18 26 37 28 58 6z m135 2 c8 -9 11 -85 9 -252 l-3 -239 -23 -3
c-50 -7 -52 3 -52 252 0 167 3 235 12 244 16 16 43 15 57 -2z m139 2 c16 -22
144 -447 140 -471 -3 -21 -7 -22 -103 -22 l-100 0 -3 239 c-2 167 1 243 9 252
14 17 43 18 57 2z m-398 -17 c6 -11 10 -87 10 -176 0 -89 -4 -165 -10 -176
-10 -18 -23 -19 -188 -19 -125 0 -182 4 -190 12 -13 13 -18 331 -6 362 5 14
32 16 190 16 171 0 184 -1 194 -19z"/>
<path d="M820 632 c0 -14 54 -60 83 -71 44 -17 89 -13 127 10 34 21 59 47 60
62 0 4 -61 7 -135 7 -74 0 -135 -4 -135 -8z"/>
<path d="M1166 614 c55 -83 195 -81 252 4 l14 22 -141 0 -141 0 16 -26z"/>
<path d="M457 513 c-4 -3 -7 -19 -7 -35 l0 -28 676 0 675 0 -3 33 -3 32 -666
3 c-366 1 -669 -1 -672 -5z"/>
</g>
</svg>
